# xmcd
#
# Track frame offsets:
# 150
# 12760
# 29075
# 45888
# 58703
# 70518
# 87948
# 100933
# 119073
# 136831
# 151203
# 166839
# 183091
# 198891
#
# Disc length: 2824 seconds
#
#
# Revision: 0
# Processed by: cddbd v1.5.2PL0 Copyright (c) Steve Scherf et al.
# Submitted via: FreeRIP 2.945 
#
DISCID=aa0b060e
DTITLE=Márcio Correia - Um Quadro do Rio Grande
DYEAR=1900
DGENRE=
TTITLE0=Lá nas Guria
TTITLE1=Convite
TTITLE2=Diabo Negro
TTITLE3=Temperando a Vaneira
TTITLE4=Ginete Mango e Espora
TTITLE5=Um Quadro do Rio Grande
TTITLE6=Só Mandioca
TTITLE7=Chamarrita de Galpão
TTITLE8=Prenda dos Sonhos
TTITLE9=Ternura dos Teus Olhos
TTITLE10=Venta Ragada
TTITLE11=Don Corote Domador
TTITLE12=Herdeiro da Saudade
TTITLE13=De Sul a Norte
EXTD=
EXTT0=
EXTT1=
EXTT2=
EXTT3=
EXTT4=
EXTT5=
EXTT6=
EXTT7=
EXTT8=
EXTT9=
EXTT10=
EXTT11=
EXTT12=
EXTT13=
PLAYORDER=
